<?xml version="1.0" encoding="UTF-8"?>
<!--
  Living Hinge Pattern - Parametric Generation
  Generated: 2025-05-28 22:57:13
  All measurements in millimeters (mm)
  
  Parameters:
    - Type: Standard
    - Dimensions: 200mm × 100mm
    - Slit Length: 15mm
    - Slit Width: 1mm
    - Slit Spacing: 3mm
    - Row Offset: 8mm
    - Alternate Rows: Yes
    - Material Color: #F5F5DC
    - Cut Color: #FF0000
-->
<svg width="200mm" height="100mm" viewBox="0 0 200 100" xmlns="http://www.w3.org/2000/svg">
  <!-- Living Hinge Pattern - All measurements in millimeters -->
  <defs>
    <style>
      .material { fill: #F5F5DC; stroke: #654321; stroke-width: 0.5; }
      .cut-line { fill: none; stroke: #FF0000; stroke-width: 1; }
      .hinge-info { font-family: Arial, sans-serif; font-size: 8px; fill: #333; }
    </style>
  </defs>
  <rect x="0" y="0" width="200" height="100" class="material" />
  <line x1="3.0" y1="10.0" x2="18.0" y2="10.0" class="cut-line" />
  <line x1="21.0" y1="10.0" x2="36.0" y2="10.0" class="cut-line" />
  <line x1="39.0" y1="10.0" x2="54.0" y2="10.0" class="cut-line" />
  <line x1="57.0" y1="10.0" x2="72.0" y2="10.0" class="cut-line" />
  <line x1="75.0" y1="10.0" x2="90.0" y2="10.0" class="cut-line" />
  <line x1="93.0" y1="10.0" x2="108.0" y2="10.0" class="cut-line" />
  <line x1="111.0" y1="10.0" x2="126.0" y2="10.0" class="cut-line" />
  <line x1="129.0" y1="10.0" x2="144.0" y2="10.0" class="cut-line" />
  <line x1="147.0" y1="10.0" x2="162.0" y2="10.0" class="cut-line" />
  <line x1="165.0" y1="10.0" x2="180.0" y2="10.0" class="cut-line" />
  <line x1="10.5" y1="18.0" x2="25.5" y2="18.0" class="cut-line" />
  <line x1="28.5" y1="18.0" x2="43.5" y2="18.0" class="cut-line" />
  <line x1="46.5" y1="18.0" x2="61.5" y2="18.0" class="cut-line" />
  <line x1="64.5" y1="18.0" x2="79.5" y2="18.0" class="cut-line" />
  <line x1="82.5" y1="18.0" x2="97.5" y2="18.0" class="cut-line" />
  <line x1="100.5" y1="18.0" x2="115.5" y2="18.0" class="cut-line" />
  <line x1="118.5" y1="18.0" x2="133.5" y2="18.0" class="cut-line" />
  <line x1="136.5" y1="18.0" x2="151.5" y2="18.0" class="cut-line" />
  <line x1="154.5" y1="18.0" x2="169.5" y2="18.0" class="cut-line" />
  <line x1="172.5" y1="18.0" x2="187.5" y2="18.0" class="cut-line" />
  <line x1="3.0" y1="26.0" x2="18.0" y2="26.0" class="cut-line" />
  <line x1="21.0" y1="26.0" x2="36.0" y2="26.0" class="cut-line" />
  <line x1="39.0" y1="26.0" x2="54.0" y2="26.0" class="cut-line" />
  <line x1="57.0" y1="26.0" x2="72.0" y2="26.0" class="cut-line" />
  <line x1="75.0" y1="26.0" x2="90.0" y2="26.0" class="cut-line" />
  <line x1="93.0" y1="26.0" x2="108.0" y2="26.0" class="cut-line" />
  <line x1="111.0" y1="26.0" x2="126.0" y2="26.0" class="cut-line" />
  <line x1="129.0" y1="26.0" x2="144.0" y2="26.0" class="cut-line" />
  <line x1="147.0" y1="26.0" x2="162.0" y2="26.0" class="cut-line" />
  <line x1="165.0" y1="26.0" x2="180.0" y2="26.0" class="cut-line" />
  <line x1="10.5" y1="34.0" x2="25.5" y2="34.0" class="cut-line" />
  <line x1="28.5" y1="34.0" x2="43.5" y2="34.0" class="cut-line" />
  <line x1="46.5" y1="34.0" x2="61.5" y2="34.0" class="cut-line" />
  <line x1="64.5" y1="34.0" x2="79.5" y2="34.0" class="cut-line" />
  <line x1="82.5" y1="34.0" x2="97.5" y2="34.0" class="cut-line" />
  <line x1="100.5" y1="34.0" x2="115.5" y2="34.0" class="cut-line" />
  <line x1="118.5" y1="34.0" x2="133.5" y2="34.0" class="cut-line" />
  <line x1="136.5" y1="34.0" x2="151.5" y2="34.0" class="cut-line" />
  <line x1="154.5" y1="34.0" x2="169.5" y2="34.0" class="cut-line" />
  <line x1="172.5" y1="34.0" x2="187.5" y2="34.0" class="cut-line" />
  <line x1="3.0" y1="42.0" x2="18.0" y2="42.0" class="cut-line" />
  <line x1="21.0" y1="42.0" x2="36.0" y2="42.0" class="cut-line" />
  <line x1="39.0" y1="42.0" x2="54.0" y2="42.0" class="cut-line" />
  <line x1="57.0" y1="42.0" x2="72.0" y2="42.0" class="cut-line" />
  <line x1="75.0" y1="42.0" x2="90.0" y2="42.0" class="cut-line" />
  <line x1="93.0" y1="42.0" x2="108.0" y2="42.0" class="cut-line" />
  <line x1="111.0" y1="42.0" x2="126.0" y2="42.0" class="cut-line" />
  <line x1="129.0" y1="42.0" x2="144.0" y2="42.0" class="cut-line" />
  <line x1="147.0" y1="42.0" x2="162.0" y2="42.0" class="cut-line" />
  <line x1="165.0" y1="42.0" x2="180.0" y2="42.0" class="cut-line" />
  <line x1="10.5" y1="50.0" x2="25.5" y2="50.0" class="cut-line" />
  <line x1="28.5" y1="50.0" x2="43.5" y2="50.0" class="cut-line" />
  <line x1="46.5" y1="50.0" x2="61.5" y2="50.0" class="cut-line" />
  <line x1="64.5" y1="50.0" x2="79.5" y2="50.0" class="cut-line" />
  <line x1="82.5" y1="50.0" x2="97.5" y2="50.0" class="cut-line" />
  <line x1="100.5" y1="50.0" x2="115.5" y2="50.0" class="cut-line" />
  <line x1="118.5" y1="50.0" x2="133.5" y2="50.0" class="cut-line" />
  <line x1="136.5" y1="50.0" x2="151.5" y2="50.0" class="cut-line" />
  <line x1="154.5" y1="50.0" x2="169.5" y2="50.0" class="cut-line" />
  <line x1="172.5" y1="50.0" x2="187.5" y2="50.0" class="cut-line" />
  <text x="5" y="75" class="hinge-info">Living Hinge - Standard (200×100mm)</text>
  <text x="5" y="85" class="hinge-info">Slit: 15×1mm, Spacing: 3mm, Row Offset: 8mm</text>
  <text x="5" y="95" class="hinge-info">Generated: 2025-05-28 22:57:13 | Alternate Rows: Yes</text>
</svg>
