<?xml version="1.0" encoding="UTF-8"?>
<!--
  Living Hinge Pattern - Parametric Generation
  Generated: 2025-06-09 17:07:40
  All measurements in millimeters (mm)
  
  Parameters:
    - Type: Sparse
    - Dimensions: 200mm × 100mm
    - Slit Length: 20mm
    - Slit Width: 1mm
    - Slit Spacing: 5mm
    - Row Offset: 12mm
    - Alternate Rows: Yes
    - Material Color: #F5F5DC
    - Cut Color: #FF0000
-->
<svg width="200mm" height="100mm" viewBox="0 0 200 100" xmlns="http://www.w3.org/2000/svg">
  <!-- Living Hinge Pattern - All measurements in millimeters -->
  <defs>
    <style>
      .material { fill: #F5F5DC; stroke: #654321; stroke-width: 0.5; }
      .cut-line { fill: none; stroke: #FF0000; stroke-width: 1; }
      .hinge-info { font-family: Arial, sans-serif; font-size: 8px; fill: #333; }
    </style>
  </defs>
  <rect x="0" y="0" width="200" height="100" class="material" />
  <line x1="5.0" y1="10.0" x2="25.0" y2="10.0" class="cut-line" />
  <line x1="30.0" y1="10.0" x2="50.0" y2="10.0" class="cut-line" />
  <line x1="55.0" y1="10.0" x2="75.0" y2="10.0" class="cut-line" />
  <line x1="80.0" y1="10.0" x2="100.0" y2="10.0" class="cut-line" />
  <line x1="105.0" y1="10.0" x2="125.0" y2="10.0" class="cut-line" />
  <line x1="130.0" y1="10.0" x2="150.0" y2="10.0" class="cut-line" />
  <line x1="155.0" y1="10.0" x2="175.0" y2="10.0" class="cut-line" />
  <line x1="15.0" y1="22.0" x2="35.0" y2="22.0" class="cut-line" />
  <line x1="40.0" y1="22.0" x2="60.0" y2="22.0" class="cut-line" />
  <line x1="65.0" y1="22.0" x2="85.0" y2="22.0" class="cut-line" />
  <line x1="90.0" y1="22.0" x2="110.0" y2="22.0" class="cut-line" />
  <line x1="115.0" y1="22.0" x2="135.0" y2="22.0" class="cut-line" />
  <line x1="140.0" y1="22.0" x2="160.0" y2="22.0" class="cut-line" />
  <line x1="165.0" y1="22.0" x2="185.0" y2="22.0" class="cut-line" />
  <line x1="5.0" y1="34.0" x2="25.0" y2="34.0" class="cut-line" />
  <line x1="30.0" y1="34.0" x2="50.0" y2="34.0" class="cut-line" />
  <line x1="55.0" y1="34.0" x2="75.0" y2="34.0" class="cut-line" />
  <line x1="80.0" y1="34.0" x2="100.0" y2="34.0" class="cut-line" />
  <line x1="105.0" y1="34.0" x2="125.0" y2="34.0" class="cut-line" />
  <line x1="130.0" y1="34.0" x2="150.0" y2="34.0" class="cut-line" />
  <line x1="155.0" y1="34.0" x2="175.0" y2="34.0" class="cut-line" />
  <line x1="15.0" y1="46.0" x2="35.0" y2="46.0" class="cut-line" />
  <line x1="40.0" y1="46.0" x2="60.0" y2="46.0" class="cut-line" />
  <line x1="65.0" y1="46.0" x2="85.0" y2="46.0" class="cut-line" />
  <line x1="90.0" y1="46.0" x2="110.0" y2="46.0" class="cut-line" />
  <line x1="115.0" y1="46.0" x2="135.0" y2="46.0" class="cut-line" />
  <line x1="140.0" y1="46.0" x2="160.0" y2="46.0" class="cut-line" />
  <line x1="165.0" y1="46.0" x2="185.0" y2="46.0" class="cut-line" />
  <text x="5" y="75" class="hinge-info">Living Hinge - Sparse (200×100mm)</text>
  <text x="5" y="85" class="hinge-info">Slit: 20×1mm, Spacing: 5mm, Row Offset: 12mm</text>
  <text x="5" y="95" class="hinge-info">Generated: 2025-06-09 17:07:40 | Alternate Rows: Yes</text>
</svg>
