<?xml version="1.0" encoding="UTF-8"?>
<!--
  Living Hinge Pattern - Parametric Generation
  Generated: 2025-05-28 22:23:37
  All measurements in millimeters (mm)
  
  Parameters:
    - Type: Dense
    - Dimensions: 200mm × 100mm
    - Slit Length: 12mm
    - Slit Width: 1mm
    - Slit Spacing: 2mm
    - Row Offset: 6mm
    - Alternate Rows: Yes
    - Material Color: #8B4513
    - Cut Color: #FF0000
-->
<svg width="200mm" height="100mm" viewBox="0 0 200 100" xmlns="http://www.w3.org/2000/svg">
  <!-- Living Hinge Pattern - All measurements in millimeters -->
  <defs>
    <style>
      .material { fill: #8B4513; stroke: #654321; stroke-width: 0.5; }
      .cut-line { fill: none; stroke: #FF0000; stroke-width: 1; }
      .hinge-info { font-family: Arial, sans-serif; font-size: 8px; fill: #333; }
    </style>
  </defs>
  <rect x="0" y="0" width="200" height="100" class="material" />
  <line x1="2.0" y1="10.0" x2="14.0" y2="10.0" class="cut-line" />
  <line x1="16.0" y1="10.0" x2="28.0" y2="10.0" class="cut-line" />
  <line x1="30.0" y1="10.0" x2="42.0" y2="10.0" class="cut-line" />
  <line x1="44.0" y1="10.0" x2="56.0" y2="10.0" class="cut-line" />
  <line x1="58.0" y1="10.0" x2="70.0" y2="10.0" class="cut-line" />
  <line x1="72.0" y1="10.0" x2="84.0" y2="10.0" class="cut-line" />
  <line x1="86.0" y1="10.0" x2="98.0" y2="10.0" class="cut-line" />
  <line x1="100.0" y1="10.0" x2="112.0" y2="10.0" class="cut-line" />
  <line x1="114.0" y1="10.0" x2="126.0" y2="10.0" class="cut-line" />
  <line x1="128.0" y1="10.0" x2="140.0" y2="10.0" class="cut-line" />
  <line x1="142.0" y1="10.0" x2="154.0" y2="10.0" class="cut-line" />
  <line x1="156.0" y1="10.0" x2="168.0" y2="10.0" class="cut-line" />
  <line x1="170.0" y1="10.0" x2="182.0" y2="10.0" class="cut-line" />
  <line x1="8.0" y1="16.0" x2="20.0" y2="16.0" class="cut-line" />
  <line x1="22.0" y1="16.0" x2="34.0" y2="16.0" class="cut-line" />
  <line x1="36.0" y1="16.0" x2="48.0" y2="16.0" class="cut-line" />
  <line x1="50.0" y1="16.0" x2="62.0" y2="16.0" class="cut-line" />
  <line x1="64.0" y1="16.0" x2="76.0" y2="16.0" class="cut-line" />
  <line x1="78.0" y1="16.0" x2="90.0" y2="16.0" class="cut-line" />
  <line x1="92.0" y1="16.0" x2="104.0" y2="16.0" class="cut-line" />
  <line x1="106.0" y1="16.0" x2="118.0" y2="16.0" class="cut-line" />
  <line x1="120.0" y1="16.0" x2="132.0" y2="16.0" class="cut-line" />
  <line x1="134.0" y1="16.0" x2="146.0" y2="16.0" class="cut-line" />
  <line x1="148.0" y1="16.0" x2="160.0" y2="16.0" class="cut-line" />
  <line x1="162.0" y1="16.0" x2="174.0" y2="16.0" class="cut-line" />
  <line x1="176.0" y1="16.0" x2="188.0" y2="16.0" class="cut-line" />
  <line x1="2.0" y1="22.0" x2="14.0" y2="22.0" class="cut-line" />
  <line x1="16.0" y1="22.0" x2="28.0" y2="22.0" class="cut-line" />
  <line x1="30.0" y1="22.0" x2="42.0" y2="22.0" class="cut-line" />
  <line x1="44.0" y1="22.0" x2="56.0" y2="22.0" class="cut-line" />
  <line x1="58.0" y1="22.0" x2="70.0" y2="22.0" class="cut-line" />
  <line x1="72.0" y1="22.0" x2="84.0" y2="22.0" class="cut-line" />
  <line x1="86.0" y1="22.0" x2="98.0" y2="22.0" class="cut-line" />
  <line x1="100.0" y1="22.0" x2="112.0" y2="22.0" class="cut-line" />
  <line x1="114.0" y1="22.0" x2="126.0" y2="22.0" class="cut-line" />
  <line x1="128.0" y1="22.0" x2="140.0" y2="22.0" class="cut-line" />
  <line x1="142.0" y1="22.0" x2="154.0" y2="22.0" class="cut-line" />
  <line x1="156.0" y1="22.0" x2="168.0" y2="22.0" class="cut-line" />
  <line x1="170.0" y1="22.0" x2="182.0" y2="22.0" class="cut-line" />
  <line x1="8.0" y1="28.0" x2="20.0" y2="28.0" class="cut-line" />
  <line x1="22.0" y1="28.0" x2="34.0" y2="28.0" class="cut-line" />
  <line x1="36.0" y1="28.0" x2="48.0" y2="28.0" class="cut-line" />
  <line x1="50.0" y1="28.0" x2="62.0" y2="28.0" class="cut-line" />
  <line x1="64.0" y1="28.0" x2="76.0" y2="28.0" class="cut-line" />
  <line x1="78.0" y1="28.0" x2="90.0" y2="28.0" class="cut-line" />
  <line x1="92.0" y1="28.0" x2="104.0" y2="28.0" class="cut-line" />
  <line x1="106.0" y1="28.0" x2="118.0" y2="28.0" class="cut-line" />
  <line x1="120.0" y1="28.0" x2="132.0" y2="28.0" class="cut-line" />
  <line x1="134.0" y1="28.0" x2="146.0" y2="28.0" class="cut-line" />
  <line x1="148.0" y1="28.0" x2="160.0" y2="28.0" class="cut-line" />
  <line x1="162.0" y1="28.0" x2="174.0" y2="28.0" class="cut-line" />
  <line x1="176.0" y1="28.0" x2="188.0" y2="28.0" class="cut-line" />
  <line x1="2.0" y1="34.0" x2="14.0" y2="34.0" class="cut-line" />
  <line x1="16.0" y1="34.0" x2="28.0" y2="34.0" class="cut-line" />
  <line x1="30.0" y1="34.0" x2="42.0" y2="34.0" class="cut-line" />
  <line x1="44.0" y1="34.0" x2="56.0" y2="34.0" class="cut-line" />
  <line x1="58.0" y1="34.0" x2="70.0" y2="34.0" class="cut-line" />
  <line x1="72.0" y1="34.0" x2="84.0" y2="34.0" class="cut-line" />
  <line x1="86.0" y1="34.0" x2="98.0" y2="34.0" class="cut-line" />
  <line x1="100.0" y1="34.0" x2="112.0" y2="34.0" class="cut-line" />
  <line x1="114.0" y1="34.0" x2="126.0" y2="34.0" class="cut-line" />
  <line x1="128.0" y1="34.0" x2="140.0" y2="34.0" class="cut-line" />
  <line x1="142.0" y1="34.0" x2="154.0" y2="34.0" class="cut-line" />
  <line x1="156.0" y1="34.0" x2="168.0" y2="34.0" class="cut-line" />
  <line x1="170.0" y1="34.0" x2="182.0" y2="34.0" class="cut-line" />
  <line x1="8.0" y1="40.0" x2="20.0" y2="40.0" class="cut-line" />
  <line x1="22.0" y1="40.0" x2="34.0" y2="40.0" class="cut-line" />
  <line x1="36.0" y1="40.0" x2="48.0" y2="40.0" class="cut-line" />
  <line x1="50.0" y1="40.0" x2="62.0" y2="40.0" class="cut-line" />
  <line x1="64.0" y1="40.0" x2="76.0" y2="40.0" class="cut-line" />
  <line x1="78.0" y1="40.0" x2="90.0" y2="40.0" class="cut-line" />
  <line x1="92.0" y1="40.0" x2="104.0" y2="40.0" class="cut-line" />
  <line x1="106.0" y1="40.0" x2="118.0" y2="40.0" class="cut-line" />
  <line x1="120.0" y1="40.0" x2="132.0" y2="40.0" class="cut-line" />
  <line x1="134.0" y1="40.0" x2="146.0" y2="40.0" class="cut-line" />
  <line x1="148.0" y1="40.0" x2="160.0" y2="40.0" class="cut-line" />
  <line x1="162.0" y1="40.0" x2="174.0" y2="40.0" class="cut-line" />
  <line x1="176.0" y1="40.0" x2="188.0" y2="40.0" class="cut-line" />
  <line x1="2.0" y1="46.0" x2="14.0" y2="46.0" class="cut-line" />
  <line x1="16.0" y1="46.0" x2="28.0" y2="46.0" class="cut-line" />
  <line x1="30.0" y1="46.0" x2="42.0" y2="46.0" class="cut-line" />
  <line x1="44.0" y1="46.0" x2="56.0" y2="46.0" class="cut-line" />
  <line x1="58.0" y1="46.0" x2="70.0" y2="46.0" class="cut-line" />
  <line x1="72.0" y1="46.0" x2="84.0" y2="46.0" class="cut-line" />
  <line x1="86.0" y1="46.0" x2="98.0" y2="46.0" class="cut-line" />
  <line x1="100.0" y1="46.0" x2="112.0" y2="46.0" class="cut-line" />
  <line x1="114.0" y1="46.0" x2="126.0" y2="46.0" class="cut-line" />
  <line x1="128.0" y1="46.0" x2="140.0" y2="46.0" class="cut-line" />
  <line x1="142.0" y1="46.0" x2="154.0" y2="46.0" class="cut-line" />
  <line x1="156.0" y1="46.0" x2="168.0" y2="46.0" class="cut-line" />
  <line x1="170.0" y1="46.0" x2="182.0" y2="46.0" class="cut-line" />
  <line x1="8.0" y1="52.0" x2="20.0" y2="52.0" class="cut-line" />
  <line x1="22.0" y1="52.0" x2="34.0" y2="52.0" class="cut-line" />
  <line x1="36.0" y1="52.0" x2="48.0" y2="52.0" class="cut-line" />
  <line x1="50.0" y1="52.0" x2="62.0" y2="52.0" class="cut-line" />
  <line x1="64.0" y1="52.0" x2="76.0" y2="52.0" class="cut-line" />
  <line x1="78.0" y1="52.0" x2="90.0" y2="52.0" class="cut-line" />
  <line x1="92.0" y1="52.0" x2="104.0" y2="52.0" class="cut-line" />
  <line x1="106.0" y1="52.0" x2="118.0" y2="52.0" class="cut-line" />
  <line x1="120.0" y1="52.0" x2="132.0" y2="52.0" class="cut-line" />
  <line x1="134.0" y1="52.0" x2="146.0" y2="52.0" class="cut-line" />
  <line x1="148.0" y1="52.0" x2="160.0" y2="52.0" class="cut-line" />
  <line x1="162.0" y1="52.0" x2="174.0" y2="52.0" class="cut-line" />
  <line x1="176.0" y1="52.0" x2="188.0" y2="52.0" class="cut-line" />
  <text x="5" y="75" class="hinge-info">Living Hinge - Dense (200×100mm)</text>
  <text x="5" y="85" class="hinge-info">Slit: 12×1mm, Spacing: 2mm, Row Offset: 6mm</text>
  <text x="5" y="95" class="hinge-info">Generated: 2025-05-28 22:23:37 | Alternate Rows: Yes</text>
</svg>
